# xmcd
#
# Track frame offsets: 
#        150
#        20156
#        32352
#        62832
#        79762
#        98020
#        120128
#        167295
#        187938
#        205302
#        223078
#        242886
#        266426
#        283442
#        304579
#        330246
#        339763
#
# Disc length: 4784 seconds
#
# Revision: 0
# Processed by: cddbd v1.5.2PL0 Copyright (c) Steve Scherf et al.
# Submitted via: ExactAudioCopy v0.95a5
#
DISCID=df12ae11
DTITLE=Various Artist - Blues Now Here! Box3 CD2
DYEAR=2007
DGENRE=Blues
TTITLE0=The Woman   or the Blues  - STORM WARNING
TTITLE1=Just Another Man - RUDY ROTTA
TTITLE2=Sandy - INNES SIBUN
TTITLE3=Hoodoo Thing - BRIAN STOLTZ
TTITLE4=Rule The World - GEOFF ACHISON and The SOULDIGGERS
TTITLE5=Rain Fall Down - ROLLING STONES
TTITLE6=Bleeding Heart - JIMMY D'LANE
TTITLE7=Say hey (dedicated to Albert Collins) - AMAR SUNDY
TTITLE8=A Piece Of Your Love - SNOWY WHITE
TTITLE9=I Smell Smoke - JOHNNY WINTER
TTITLE10=Yield Not To Temptation - The CATE BROTHERS
TTITLE11=Lady Luck - PAUL CAMILLERI
TTITLE12=I Feel Good - ALBERT CUMMINGS
TTITLE13=It's A Blue Sky Day - GIANFRANCO SEGATTO
TTITLE14=Nobody Loves Me Like I Love Myself - DANNY BRYANT
TTITLE15=Latin Lady - BRAD KELSEY
TTITLE16=Out Of My Mind - BLUES COMPANY
EXTD=
EXTT0=
EXTT1=
EXTT2=
EXTT3=
EXTT4=
EXTT5=
EXTT6=
EXTT7=
EXTT8=
EXTT9=
EXTT10=
EXTT11=
EXTT12=
EXTT13=
EXTT14=
EXTT15=
EXTT16=
PLAYORDER=
